<mxfile host="app.diagrams.net" modified="2024-05-16T08:25:49.225Z" agent="Mozilla/5.0 (Windows NT 10.0; Win64; x64) AppleWebKit/537.36 (KHTML, like Gecko) Chrome/124.0.0.0 Safari/537.36" etag="5eFvUCqwpPvVwOHsilsS" version="24.4.0" type="device">
  <diagram name="Page-1" id="kK3GuNxnCv2toRlefSzy">
    <mxGraphModel dx="1313" dy="706" grid="1" gridSize="10" guides="1" tooltips="1" connect="1" arrows="1" fold="1" page="1" pageScale="1" pageWidth="850" pageHeight="1100" math="0" shadow="0">
      <root>
        <mxCell id="0" />
        <mxCell id="1" parent="0" />
        <mxCell id="YGhLAN7MDYVhv74f_m3T-67" value="" style="rounded=0;whiteSpace=wrap;html=1;fillColor=none;strokeWidth=2;" vertex="1" parent="1">
          <mxGeometry x="160" y="20" width="840" height="890" as="geometry" />
        </mxCell>
        <mxCell id="YGhLAN7MDYVhv74f_m3T-50" style="edgeStyle=orthogonalEdgeStyle;rounded=0;orthogonalLoop=1;jettySize=auto;html=1;exitX=0.5;exitY=1;exitDx=0;exitDy=0;entryX=0.5;entryY=0;entryDx=0;entryDy=0;endArrow=none;endFill=0;" edge="1" parent="1" source="YGhLAN7MDYVhv74f_m3T-1" target="YGhLAN7MDYVhv74f_m3T-3">
          <mxGeometry relative="1" as="geometry" />
        </mxCell>
        <mxCell id="YGhLAN7MDYVhv74f_m3T-51" style="edgeStyle=orthogonalEdgeStyle;rounded=0;orthogonalLoop=1;jettySize=auto;html=1;exitX=0.5;exitY=1;exitDx=0;exitDy=0;entryX=0.5;entryY=0;entryDx=0;entryDy=0;endArrow=none;endFill=0;" edge="1" parent="1" source="YGhLAN7MDYVhv74f_m3T-1" target="YGhLAN7MDYVhv74f_m3T-4">
          <mxGeometry relative="1" as="geometry" />
        </mxCell>
        <mxCell id="YGhLAN7MDYVhv74f_m3T-1" value="Sistema de Monitoramento de Saúde" style="rounded=0;whiteSpace=wrap;html=1;fillColor=#3399FF;" vertex="1" parent="1">
          <mxGeometry x="510" y="60" width="130" height="60" as="geometry" />
        </mxCell>
        <mxCell id="YGhLAN7MDYVhv74f_m3T-37" style="edgeStyle=orthogonalEdgeStyle;rounded=0;orthogonalLoop=1;jettySize=auto;html=1;exitX=0.5;exitY=1;exitDx=0;exitDy=0;entryX=0.5;entryY=0;entryDx=0;entryDy=0;endArrow=none;endFill=0;" edge="1" parent="1" source="YGhLAN7MDYVhv74f_m3T-3" target="YGhLAN7MDYVhv74f_m3T-6">
          <mxGeometry relative="1" as="geometry" />
        </mxCell>
        <mxCell id="YGhLAN7MDYVhv74f_m3T-38" style="edgeStyle=orthogonalEdgeStyle;rounded=0;orthogonalLoop=1;jettySize=auto;html=1;exitX=0.5;exitY=1;exitDx=0;exitDy=0;entryX=0.5;entryY=0;entryDx=0;entryDy=0;endArrow=none;endFill=0;" edge="1" parent="1" source="YGhLAN7MDYVhv74f_m3T-3" target="YGhLAN7MDYVhv74f_m3T-5">
          <mxGeometry relative="1" as="geometry" />
        </mxCell>
        <mxCell id="YGhLAN7MDYVhv74f_m3T-3" value="Planejamento&lt;span style=&quot;color: rgba(0, 0, 0, 0); font-family: monospace; font-size: 0px; text-align: start; text-wrap: nowrap;&quot;&gt;%3CmxGraphModel%3E%3Croot%3E%3CmxCell%20id%3D%220%22%2F%3E%3CmxCell%20id%3D%221%22%20parent%3D%220%22%2F%3E%3CmxCell%20id%3D%222%22%20value%3D%22%22%20style%3D%22rounded%3D0%3BwhiteSpace%3Dwrap%3Bhtml%3D1%3B%22%20vertex%3D%221%22%20parent%3D%221%22%3E%3CmxGeometry%20x%3D%22520%22%20y%3D%22240%22%20width%3D%22120%22%20height%3D%2260%22%20as%3D%22geometry%22%2F%3E%3C%2FmxCell%3E%3C%2Froot%3E%3C%2FmxGraphModel%3E e&amp;nbsp;&lt;/span&gt;" style="rounded=0;whiteSpace=wrap;html=1;fillColor=#66B2FF;" vertex="1" parent="1">
          <mxGeometry x="300" y="160" width="120" height="60" as="geometry" />
        </mxCell>
        <mxCell id="YGhLAN7MDYVhv74f_m3T-52" style="edgeStyle=orthogonalEdgeStyle;rounded=0;orthogonalLoop=1;jettySize=auto;html=1;exitX=0.5;exitY=1;exitDx=0;exitDy=0;entryX=0.5;entryY=0;entryDx=0;entryDy=0;endArrow=none;endFill=0;" edge="1" parent="1" source="YGhLAN7MDYVhv74f_m3T-4" target="YGhLAN7MDYVhv74f_m3T-18">
          <mxGeometry relative="1" as="geometry" />
        </mxCell>
        <mxCell id="YGhLAN7MDYVhv74f_m3T-59" style="edgeStyle=orthogonalEdgeStyle;rounded=0;orthogonalLoop=1;jettySize=auto;html=1;exitX=0.5;exitY=1;exitDx=0;exitDy=0;entryX=0.5;entryY=0;entryDx=0;entryDy=0;endArrow=none;endFill=0;" edge="1" parent="1" source="YGhLAN7MDYVhv74f_m3T-4" target="YGhLAN7MDYVhv74f_m3T-19">
          <mxGeometry relative="1" as="geometry" />
        </mxCell>
        <mxCell id="YGhLAN7MDYVhv74f_m3T-4" value="Desenvolvimento" style="rounded=0;whiteSpace=wrap;html=1;fillColor=#66B2FF;" vertex="1" parent="1">
          <mxGeometry x="730" y="160" width="120" height="60" as="geometry" />
        </mxCell>
        <mxCell id="YGhLAN7MDYVhv74f_m3T-44" style="edgeStyle=orthogonalEdgeStyle;rounded=0;orthogonalLoop=1;jettySize=auto;html=1;exitX=0.5;exitY=1;exitDx=0;exitDy=0;endArrow=none;endFill=0;" edge="1" parent="1" source="YGhLAN7MDYVhv74f_m3T-5" target="YGhLAN7MDYVhv74f_m3T-7">
          <mxGeometry relative="1" as="geometry" />
        </mxCell>
        <mxCell id="YGhLAN7MDYVhv74f_m3T-5" value="Decisões Técnicas" style="rounded=0;whiteSpace=wrap;html=1;fillColor=#CCE5FF;" vertex="1" parent="1">
          <mxGeometry x="400" y="260" width="120" height="60" as="geometry" />
        </mxCell>
        <mxCell id="YGhLAN7MDYVhv74f_m3T-39" style="edgeStyle=orthogonalEdgeStyle;rounded=0;orthogonalLoop=1;jettySize=auto;html=1;exitX=0.5;exitY=1;exitDx=0;exitDy=0;entryX=0.5;entryY=0;entryDx=0;entryDy=0;endArrow=none;endFill=0;" edge="1" parent="1" source="YGhLAN7MDYVhv74f_m3T-6" target="YGhLAN7MDYVhv74f_m3T-8">
          <mxGeometry relative="1" as="geometry" />
        </mxCell>
        <mxCell id="YGhLAN7MDYVhv74f_m3T-6" value="Concepção" style="rounded=0;whiteSpace=wrap;html=1;fillColor=#CCE5FF;" vertex="1" parent="1">
          <mxGeometry x="200" y="260" width="120" height="60" as="geometry" />
        </mxCell>
        <mxCell id="YGhLAN7MDYVhv74f_m3T-45" style="edgeStyle=orthogonalEdgeStyle;rounded=0;orthogonalLoop=1;jettySize=auto;html=1;exitX=0.5;exitY=1;exitDx=0;exitDy=0;fillColor=#eeeeee;strokeColor=#36393d;endArrow=none;endFill=0;" edge="1" parent="1" source="YGhLAN7MDYVhv74f_m3T-7" target="YGhLAN7MDYVhv74f_m3T-9">
          <mxGeometry relative="1" as="geometry" />
        </mxCell>
        <mxCell id="YGhLAN7MDYVhv74f_m3T-7" value="Modelagem do Banco de Dados Relacional" style="rounded=0;whiteSpace=wrap;html=1;fillColor=#eeeeee;strokeColor=#36393d;" vertex="1" parent="1">
          <mxGeometry x="400" y="352" width="120" height="60" as="geometry" />
        </mxCell>
        <mxCell id="YGhLAN7MDYVhv74f_m3T-40" style="edgeStyle=orthogonalEdgeStyle;rounded=0;orthogonalLoop=1;jettySize=auto;html=1;exitX=0.5;exitY=1;exitDx=0;exitDy=0;fillColor=#eeeeee;strokeColor=#36393d;endArrow=none;endFill=0;" edge="1" parent="1" source="YGhLAN7MDYVhv74f_m3T-8" target="YGhLAN7MDYVhv74f_m3T-13">
          <mxGeometry relative="1" as="geometry" />
        </mxCell>
        <mxCell id="YGhLAN7MDYVhv74f_m3T-8" value="Levantamento de Requisitos" style="rounded=0;whiteSpace=wrap;html=1;fillColor=#eeeeee;strokeColor=#36393d;" vertex="1" parent="1">
          <mxGeometry x="200" y="352" width="120" height="60" as="geometry" />
        </mxCell>
        <mxCell id="YGhLAN7MDYVhv74f_m3T-46" style="edgeStyle=orthogonalEdgeStyle;rounded=0;orthogonalLoop=1;jettySize=auto;html=1;exitX=0.5;exitY=1;exitDx=0;exitDy=0;entryX=0.5;entryY=0;entryDx=0;entryDy=0;fillColor=#eeeeee;strokeColor=#36393d;endArrow=none;endFill=0;" edge="1" parent="1" source="YGhLAN7MDYVhv74f_m3T-9" target="YGhLAN7MDYVhv74f_m3T-10">
          <mxGeometry relative="1" as="geometry" />
        </mxCell>
        <mxCell id="YGhLAN7MDYVhv74f_m3T-9" value="Modelagem do Banco de Dados Não-Relacional" style="rounded=0;whiteSpace=wrap;html=1;fillColor=#eeeeee;strokeColor=#36393d;" vertex="1" parent="1">
          <mxGeometry x="390" y="444" width="140" height="60" as="geometry" />
        </mxCell>
        <mxCell id="YGhLAN7MDYVhv74f_m3T-36" style="edgeStyle=orthogonalEdgeStyle;rounded=0;orthogonalLoop=1;jettySize=auto;html=1;fillColor=#eeeeee;strokeColor=#36393d;endArrow=none;endFill=0;" edge="1" parent="1" source="YGhLAN7MDYVhv74f_m3T-10" target="YGhLAN7MDYVhv74f_m3T-11">
          <mxGeometry relative="1" as="geometry" />
        </mxCell>
        <mxCell id="YGhLAN7MDYVhv74f_m3T-10" value="Escolha do Microcontrolador e Sensores" style="rounded=0;whiteSpace=wrap;html=1;fillColor=#eeeeee;strokeColor=#36393d;" vertex="1" parent="1">
          <mxGeometry x="400" y="536" width="120" height="60" as="geometry" />
        </mxCell>
        <mxCell id="YGhLAN7MDYVhv74f_m3T-48" style="edgeStyle=orthogonalEdgeStyle;rounded=0;orthogonalLoop=1;jettySize=auto;html=1;exitX=0.5;exitY=1;exitDx=0;exitDy=0;entryX=0.5;entryY=0;entryDx=0;entryDy=0;fillColor=#eeeeee;strokeColor=#36393d;endArrow=none;endFill=0;" edge="1" parent="1" source="YGhLAN7MDYVhv74f_m3T-11" target="YGhLAN7MDYVhv74f_m3T-12">
          <mxGeometry relative="1" as="geometry" />
        </mxCell>
        <mxCell id="YGhLAN7MDYVhv74f_m3T-11" value="Definição do Fluxo&lt;div&gt;de Funcionamento&lt;br&gt;da Aplicação&lt;/div&gt;" style="rounded=0;whiteSpace=wrap;html=1;fillColor=#eeeeee;strokeColor=#36393d;" vertex="1" parent="1">
          <mxGeometry x="400" y="628" width="120" height="60" as="geometry" />
        </mxCell>
        <mxCell id="YGhLAN7MDYVhv74f_m3T-12" value="Levantamento das Linguagens e Tecnologias" style="rounded=0;whiteSpace=wrap;html=1;fillColor=#eeeeee;strokeColor=#36393d;" vertex="1" parent="1">
          <mxGeometry x="400" y="720" width="120" height="60" as="geometry" />
        </mxCell>
        <mxCell id="YGhLAN7MDYVhv74f_m3T-41" style="edgeStyle=orthogonalEdgeStyle;rounded=0;orthogonalLoop=1;jettySize=auto;html=1;exitX=0.5;exitY=1;exitDx=0;exitDy=0;entryX=0.5;entryY=0;entryDx=0;entryDy=0;fillColor=#eeeeee;strokeColor=#36393d;" edge="1" parent="1" source="YGhLAN7MDYVhv74f_m3T-13" target="YGhLAN7MDYVhv74f_m3T-14">
          <mxGeometry relative="1" as="geometry" />
        </mxCell>
        <mxCell id="YGhLAN7MDYVhv74f_m3T-13" value="Definição do Escopo do Sistema" style="rounded=0;whiteSpace=wrap;html=1;fillColor=#eeeeee;strokeColor=#36393d;" vertex="1" parent="1">
          <mxGeometry x="200" y="444" width="120" height="60" as="geometry" />
        </mxCell>
        <mxCell id="YGhLAN7MDYVhv74f_m3T-42" style="edgeStyle=orthogonalEdgeStyle;rounded=0;orthogonalLoop=1;jettySize=auto;html=1;exitX=0.5;exitY=1;exitDx=0;exitDy=0;entryX=0.5;entryY=0;entryDx=0;entryDy=0;fillColor=#eeeeee;strokeColor=#36393d;endArrow=none;endFill=0;" edge="1" parent="1" source="YGhLAN7MDYVhv74f_m3T-14" target="YGhLAN7MDYVhv74f_m3T-15">
          <mxGeometry relative="1" as="geometry" />
        </mxCell>
        <mxCell id="YGhLAN7MDYVhv74f_m3T-68" value="" style="edgeStyle=orthogonalEdgeStyle;rounded=0;orthogonalLoop=1;jettySize=auto;html=1;endArrow=none;endFill=0;" edge="1" parent="1" source="YGhLAN7MDYVhv74f_m3T-14" target="YGhLAN7MDYVhv74f_m3T-13">
          <mxGeometry relative="1" as="geometry" />
        </mxCell>
        <mxCell id="YGhLAN7MDYVhv74f_m3T-14" value="Listagem das Histórias de Usuário" style="rounded=0;whiteSpace=wrap;html=1;fillColor=#eeeeee;strokeColor=#36393d;" vertex="1" parent="1">
          <mxGeometry x="200" y="536" width="120" height="60" as="geometry" />
        </mxCell>
        <mxCell id="YGhLAN7MDYVhv74f_m3T-43" style="edgeStyle=orthogonalEdgeStyle;rounded=0;orthogonalLoop=1;jettySize=auto;html=1;exitX=0.5;exitY=1;exitDx=0;exitDy=0;fillColor=#eeeeee;strokeColor=#36393d;endArrow=none;endFill=0;" edge="1" parent="1" source="YGhLAN7MDYVhv74f_m3T-15" target="YGhLAN7MDYVhv74f_m3T-30">
          <mxGeometry relative="1" as="geometry" />
        </mxCell>
        <mxCell id="YGhLAN7MDYVhv74f_m3T-15" value="Criação da Lista de Atividades" style="rounded=0;whiteSpace=wrap;html=1;fillColor=#eeeeee;strokeColor=#36393d;" vertex="1" parent="1">
          <mxGeometry x="200" y="628" width="120" height="60" as="geometry" />
        </mxCell>
        <mxCell id="YGhLAN7MDYVhv74f_m3T-53" style="edgeStyle=orthogonalEdgeStyle;rounded=0;orthogonalLoop=1;jettySize=auto;html=1;exitX=0.5;exitY=1;exitDx=0;exitDy=0;entryX=0.5;entryY=0;entryDx=0;entryDy=0;endArrow=none;endFill=0;" edge="1" parent="1" source="YGhLAN7MDYVhv74f_m3T-18" target="YGhLAN7MDYVhv74f_m3T-35">
          <mxGeometry relative="1" as="geometry" />
        </mxCell>
        <mxCell id="YGhLAN7MDYVhv74f_m3T-18" value="Software" style="rounded=0;whiteSpace=wrap;html=1;fillColor=#CCE5FF;" vertex="1" parent="1">
          <mxGeometry x="630" y="260" width="120" height="60" as="geometry" />
        </mxCell>
        <mxCell id="YGhLAN7MDYVhv74f_m3T-60" style="edgeStyle=orthogonalEdgeStyle;rounded=0;orthogonalLoop=1;jettySize=auto;html=1;exitX=0.5;exitY=1;exitDx=0;exitDy=0;entryX=0.5;entryY=0;entryDx=0;entryDy=0;endArrow=none;endFill=0;" edge="1" parent="1" source="YGhLAN7MDYVhv74f_m3T-19" target="YGhLAN7MDYVhv74f_m3T-25">
          <mxGeometry relative="1" as="geometry" />
        </mxCell>
        <mxCell id="YGhLAN7MDYVhv74f_m3T-19" value="Hardware (IOT)" style="rounded=0;whiteSpace=wrap;html=1;fillColor=#CCE5FF;" vertex="1" parent="1">
          <mxGeometry x="835" y="260" width="120" height="60" as="geometry" />
        </mxCell>
        <mxCell id="YGhLAN7MDYVhv74f_m3T-62" style="edgeStyle=orthogonalEdgeStyle;rounded=0;orthogonalLoop=1;jettySize=auto;html=1;exitX=0.5;exitY=1;exitDx=0;exitDy=0;entryX=0.5;entryY=0;entryDx=0;entryDy=0;fillColor=#eeeeee;strokeColor=#36393d;endArrow=none;endFill=0;" edge="1" parent="1" source="YGhLAN7MDYVhv74f_m3T-20" target="YGhLAN7MDYVhv74f_m3T-22">
          <mxGeometry relative="1" as="geometry" />
        </mxCell>
        <mxCell id="YGhLAN7MDYVhv74f_m3T-20" value="Inclusão do Sensor de Frequência Cardíaca" style="rounded=0;whiteSpace=wrap;html=1;fillColor=#eeeeee;strokeColor=#36393d;" vertex="1" parent="1">
          <mxGeometry x="830" y="444" width="130" height="60" as="geometry" />
        </mxCell>
        <mxCell id="YGhLAN7MDYVhv74f_m3T-63" style="edgeStyle=orthogonalEdgeStyle;rounded=0;orthogonalLoop=1;jettySize=auto;html=1;exitX=0.5;exitY=1;exitDx=0;exitDy=0;entryX=0.5;entryY=0;entryDx=0;entryDy=0;fillColor=#eeeeee;strokeColor=#36393d;endArrow=none;endFill=0;" edge="1" parent="1" source="YGhLAN7MDYVhv74f_m3T-22" target="YGhLAN7MDYVhv74f_m3T-24">
          <mxGeometry relative="1" as="geometry" />
        </mxCell>
        <mxCell id="YGhLAN7MDYVhv74f_m3T-22" value="Inclusão do Sensor de Pressão Sanguínea" style="rounded=0;whiteSpace=wrap;html=1;fillColor=#eeeeee;strokeColor=#36393d;" vertex="1" parent="1">
          <mxGeometry x="830" y="536" width="130" height="60" as="geometry" />
        </mxCell>
        <mxCell id="YGhLAN7MDYVhv74f_m3T-64" style="edgeStyle=orthogonalEdgeStyle;rounded=0;orthogonalLoop=1;jettySize=auto;html=1;exitX=0.5;exitY=1;exitDx=0;exitDy=0;entryX=0.5;entryY=0;entryDx=0;entryDy=0;fillColor=#eeeeee;strokeColor=#36393d;endArrow=none;endFill=0;" edge="1" parent="1" source="YGhLAN7MDYVhv74f_m3T-24" target="YGhLAN7MDYVhv74f_m3T-26">
          <mxGeometry relative="1" as="geometry" />
        </mxCell>
        <mxCell id="YGhLAN7MDYVhv74f_m3T-24" value="Inclusão do Sensor de Temperatura Corporal" style="rounded=0;whiteSpace=wrap;html=1;fillColor=#eeeeee;strokeColor=#36393d;" vertex="1" parent="1">
          <mxGeometry x="830" y="628" width="130" height="60" as="geometry" />
        </mxCell>
        <mxCell id="YGhLAN7MDYVhv74f_m3T-61" style="edgeStyle=orthogonalEdgeStyle;rounded=0;orthogonalLoop=1;jettySize=auto;html=1;exitX=0.5;exitY=1;exitDx=0;exitDy=0;entryX=0.5;entryY=0;entryDx=0;entryDy=0;fillColor=#eeeeee;strokeColor=#36393d;endArrow=none;endFill=0;" edge="1" parent="1" source="YGhLAN7MDYVhv74f_m3T-25" target="YGhLAN7MDYVhv74f_m3T-20">
          <mxGeometry relative="1" as="geometry" />
        </mxCell>
        <mxCell id="YGhLAN7MDYVhv74f_m3T-25" value="Configuração do Microcontrolador" style="rounded=0;whiteSpace=wrap;html=1;fillColor=#eeeeee;strokeColor=#36393d;" vertex="1" parent="1">
          <mxGeometry x="835" y="352" width="120" height="60" as="geometry" />
        </mxCell>
        <mxCell id="YGhLAN7MDYVhv74f_m3T-65" style="edgeStyle=orthogonalEdgeStyle;rounded=0;orthogonalLoop=1;jettySize=auto;html=1;exitX=0.5;exitY=1;exitDx=0;exitDy=0;entryX=0.5;entryY=0;entryDx=0;entryDy=0;fillColor=#eeeeee;strokeColor=#36393d;endArrow=none;endFill=0;" edge="1" parent="1" source="YGhLAN7MDYVhv74f_m3T-26" target="YGhLAN7MDYVhv74f_m3T-27">
          <mxGeometry relative="1" as="geometry" />
        </mxCell>
        <mxCell id="YGhLAN7MDYVhv74f_m3T-26" value="Comunicação Bluetooth entre microcontrolador e sistema" style="rounded=0;whiteSpace=wrap;html=1;fillColor=#eeeeee;strokeColor=#36393d;" vertex="1" parent="1">
          <mxGeometry x="830" y="720" width="130" height="60" as="geometry" />
        </mxCell>
        <mxCell id="YGhLAN7MDYVhv74f_m3T-27" value="Comunicação Bluetooth entre microcontrolador e sistema" style="rounded=0;whiteSpace=wrap;html=1;fillColor=#eeeeee;strokeColor=#36393d;" vertex="1" parent="1">
          <mxGeometry x="830" y="810" width="130" height="60" as="geometry" />
        </mxCell>
        <mxCell id="YGhLAN7MDYVhv74f_m3T-55" style="edgeStyle=orthogonalEdgeStyle;rounded=0;orthogonalLoop=1;jettySize=auto;html=1;exitX=0.5;exitY=1;exitDx=0;exitDy=0;entryX=0.5;entryY=0;entryDx=0;entryDy=0;fillColor=#eeeeee;strokeColor=#36393d;endArrow=none;endFill=0;" edge="1" parent="1" source="YGhLAN7MDYVhv74f_m3T-29" target="YGhLAN7MDYVhv74f_m3T-31">
          <mxGeometry relative="1" as="geometry" />
        </mxCell>
        <mxCell id="YGhLAN7MDYVhv74f_m3T-29" value="Leitura dos Dados coletados pelos Sensores" style="rounded=0;whiteSpace=wrap;html=1;fillColor=#eeeeee;strokeColor=#36393d;" vertex="1" parent="1">
          <mxGeometry x="630" y="444" width="120" height="60" as="geometry" />
        </mxCell>
        <mxCell id="YGhLAN7MDYVhv74f_m3T-30" value="Criação do Layout &lt;br&gt;do Sistema" style="rounded=0;whiteSpace=wrap;html=1;fillColor=#eeeeee;strokeColor=#36393d;" vertex="1" parent="1">
          <mxGeometry x="200" y="720" width="120" height="60" as="geometry" />
        </mxCell>
        <mxCell id="YGhLAN7MDYVhv74f_m3T-56" style="edgeStyle=orthogonalEdgeStyle;rounded=0;orthogonalLoop=1;jettySize=auto;html=1;exitX=0.5;exitY=1;exitDx=0;exitDy=0;entryX=0.5;entryY=0;entryDx=0;entryDy=0;fillColor=#eeeeee;strokeColor=#36393d;endArrow=none;endFill=0;" edge="1" parent="1" source="YGhLAN7MDYVhv74f_m3T-31" target="YGhLAN7MDYVhv74f_m3T-32">
          <mxGeometry relative="1" as="geometry" />
        </mxCell>
        <mxCell id="YGhLAN7MDYVhv74f_m3T-31" value="Histórico dos Sinais Vitais Coletados" style="rounded=0;whiteSpace=wrap;html=1;fillColor=#eeeeee;strokeColor=#36393d;" vertex="1" parent="1">
          <mxGeometry x="630" y="536" width="120" height="60" as="geometry" />
        </mxCell>
        <mxCell id="YGhLAN7MDYVhv74f_m3T-57" style="edgeStyle=orthogonalEdgeStyle;rounded=0;orthogonalLoop=1;jettySize=auto;html=1;exitX=0.5;exitY=1;exitDx=0;exitDy=0;entryX=0.5;entryY=0;entryDx=0;entryDy=0;fillColor=#eeeeee;strokeColor=#36393d;endArrow=none;endFill=0;" edge="1" parent="1" source="YGhLAN7MDYVhv74f_m3T-32" target="YGhLAN7MDYVhv74f_m3T-34">
          <mxGeometry relative="1" as="geometry" />
        </mxCell>
        <mxCell id="YGhLAN7MDYVhv74f_m3T-32" value="Histórico dos Medicamentos Utilizados" style="rounded=0;whiteSpace=wrap;html=1;fillColor=#eeeeee;strokeColor=#36393d;" vertex="1" parent="1">
          <mxGeometry x="630" y="628" width="120" height="60" as="geometry" />
        </mxCell>
        <mxCell id="YGhLAN7MDYVhv74f_m3T-34" value="Emissão de Lembretes e Alertas" style="rounded=0;whiteSpace=wrap;html=1;fillColor=#eeeeee;strokeColor=#36393d;" vertex="1" parent="1">
          <mxGeometry x="630" y="720" width="120" height="60" as="geometry" />
        </mxCell>
        <mxCell id="YGhLAN7MDYVhv74f_m3T-54" style="edgeStyle=orthogonalEdgeStyle;rounded=0;orthogonalLoop=1;jettySize=auto;html=1;exitX=0.5;exitY=1;exitDx=0;exitDy=0;entryX=0.5;entryY=0;entryDx=0;entryDy=0;fillColor=#eeeeee;strokeColor=#36393d;endArrow=none;endFill=0;" edge="1" parent="1" source="YGhLAN7MDYVhv74f_m3T-35" target="YGhLAN7MDYVhv74f_m3T-29">
          <mxGeometry relative="1" as="geometry" />
        </mxCell>
        <mxCell id="YGhLAN7MDYVhv74f_m3T-35" value="Cadastro de Usuários" style="rounded=0;whiteSpace=wrap;html=1;fillColor=#eeeeee;strokeColor=#36393d;" vertex="1" parent="1">
          <mxGeometry x="630" y="352" width="120" height="60" as="geometry" />
        </mxCell>
      </root>
    </mxGraphModel>
  </diagram>
</mxfile>
